REM GENRE Electronic
REM DATE 2016
REM DISCID F0130D12
REM COMMENT "ExactAudioCopy v1.0b4"
CATALOG 0602557156669
PERFORMER "Schiller"
TITLE "Zeitreise - Das Beste Von Schiller"
FILE "Schiller - Zeitreise - Das Beste Von Schiller.flac" WAVE
  TRACK 01 AUDIO
    TITLE "Zeitreise I"
    PERFORMER "Schiller"
    ISRC DEUM71604463
    INDEX 01 00:00:00
  TRACK 02 AUDIO
    TITLE "Schwerelos"
    PERFORMER "Schiller"
    ISRC DEUM71604464
    INDEX 01 02:18:06
  TRACK 03 AUDIO
    TITLE "The Future III"
    PERFORMER "Schiller"
    ISRC DEUM71604465
    INDEX 01 08:37:55
  TRACK 04 AUDIO
    TITLE "Ile Aye (Mit Stephenie Coker)"
    PERFORMER "Schiller"
    ISRC DEUM71604466
    INDEX 01 14:17:61
  TRACK 05 AUDIO
    TITLE "Tiefblau"
    PERFORMER "Schiller"
    ISRC DEUM71604467
    INDEX 01 18:30:17
  TRACK 06 AUDIO
    TITLE "Der Tag...Du Bist Erwacht (Mit Jette Von Roth)"
    PERFORMER "Schiller"
    ISRC DEUM71604468
    INDEX 01 23:39:14
  TRACK 07 AUDIO
    TITLE "Sommerregen"
    PERFORMER "Schiller"
    ISRC DEUM71604469
    INDEX 01 27:56:71
  TRACK 08 AUDIO
    TITLE "Playing With Madness (Mit Mia Bergstroem)"
    PERFORMER "Schiller"
    ISRC DEUM71604470
    INDEX 01 31:39:71
  TRACK 09 AUDIO
    TITLE "Leben...I Feel You (Mit Heppner)"
    PERFORMER "Schiller"
    ISRC DEUM71604471
    INDEX 01 36:41:28
  TRACK 10 AUDIO
    TITLE "In Der Weite"
    PERFORMER "Schiller"
    ISRC DEUM71604472
    INDEX 01 40:31:67
  TRACK 11 AUDIO
    TITLE "Ultramarin"
    PERFORMER "Schiller"
    ISRC DEUM71604473
    INDEX 01 46:04:12
  TRACK 12 AUDIO
    TITLE "Berlin - Moskau"
    PERFORMER "Schiller"
    ISRC DEUM71604474
    INDEX 01 50:51:28
  TRACK 13 AUDIO
    TITLE "Salton Sea"
    PERFORMER "Schiller"
    ISRC DEUM71604475
    INDEX 01 55:24:18
  TRACK 14 AUDIO
    TITLE "Mitternacht"
    PERFORMER "Schiller"
    ISRC DEUM71604476
    INDEX 01 60:13:40
  TRACK 15 AUDIO
    TITLE "Polarstern"
    PERFORMER "Schiller"
    ISRC DEUM71604477
    INDEX 01 64:41:65
  TRACK 16 AUDIO
    TITLE "Once Upon A Time"
    PERFORMER "Schiller"
    ISRC DEUM71604478
    INDEX 01 69:10:68
  TRACK 17 AUDIO
    TITLE "Dream Of You (Mit Heppner)"
    PERFORMER "Schiller"
    ISRC DEUM71604479
    INDEX 01 72:59:57
  TRACK 18 AUDIO
    TITLE "Denn Wer Liebt (Mit Anna Maria Muehe)"
    PERFORMER "Schiller"
    ISRC DEUM71604480
    INDEX 01 76:57:08
